<svg width="167" height="28" viewBox="0 0 167 28" fill="none" xmlns="http://www.w3.org/2000/svg">
<path d="M0.763672 21.92C1.0293 19.7064 1.23958 18.002 1.39453 16.8067C1.54948 15.6114 1.66016 14.7259 1.72656 14.1504C1.8151 13.4864 1.85938 13.099 1.85938 12.9883C2.05859 12.3021 2.26888 11.5606 2.49023 10.7637C2.71159 9.96683 2.99935 9.22529 3.35352 8.53909C3.72982 7.8529 4.20573 7.27737 4.78125 6.81253C5.35677 6.34769 6.09831 6.11526 7.00586 6.11526C7.4043 6.11526 7.75846 6.14847 8.06836 6.21487C8.40039 6.25915 8.71029 6.34769 8.99805 6.4805C9.28581 6.61331 9.5625 6.77933 9.82812 6.97855C10.1159 7.15563 10.4147 7.37698 10.7246 7.64261C10.946 7.84183 11.0677 7.96357 11.0898 8.00784C11.1341 8.05211 11.1562 8.18493 11.1562 8.40628C11.1562 8.69404 11.0566 8.97073 10.8574 9.23636C10.6582 9.50198 10.3704 9.6348 9.99414 9.6348C9.68424 9.6348 9.42969 9.56839 9.23047 9.43558C9.03125 9.28063 8.83203 9.11461 8.63281 8.93753C8.45573 8.73831 8.25651 8.5723 8.03516 8.43948C7.83594 8.28454 7.57031 8.20706 7.23828 8.20706C6.88411 8.20706 6.57422 8.30667 6.30859 8.50589C6.04297 8.68297 5.81055 8.9154 5.61133 9.20316C5.43424 9.49092 5.29036 9.81188 5.17969 10.166C5.09115 10.5202 5.02474 10.8522 4.98047 11.1621L3.41992 21.7871C3.41992 21.8314 3.40885 21.9421 3.38672 22.1192C3.38672 22.2741 3.38672 22.3959 3.38672 22.4844C3.38672 22.6394 3.38672 22.8386 3.38672 23.0821C3.38672 23.3034 3.40885 23.5358 3.45312 23.7793C3.4974 24.0007 3.57487 24.1999 3.68555 24.377C3.79622 24.5319 3.96224 24.6094 4.18359 24.6094C4.31641 24.6094 4.43815 24.5651 4.54883 24.4766C5.61133 23.7683 6.51888 22.9492 7.27148 22.0196C8.04622 21.0677 8.77669 20.0606 9.46289 18.9981C9.48503 18.9538 9.54036 18.8542 9.62891 18.6992C9.73958 18.5222 9.83919 18.3451 9.92773 18.168C10.0384 17.9688 10.138 17.7806 10.2266 17.6035C10.3151 17.4043 10.3815 17.2604 10.4258 17.1719C10.5586 16.8841 10.6582 16.5853 10.7246 16.2754C10.791 15.9655 10.8685 15.6778 10.957 15.4121C11.0677 15.1465 11.2227 14.9362 11.4219 14.7813C11.6211 14.6042 11.931 14.5157 12.3516 14.5157C12.6615 14.5157 12.9603 14.6485 13.248 14.9141C13.5358 15.1797 13.6797 15.4896 13.6797 15.8438V15.9102C13.1263 17.5039 12.4069 18.9759 11.5215 20.3262C10.6582 21.6765 9.69531 23.0157 8.63281 24.3438C7.96875 25.1407 7.20508 25.7826 6.3418 26.2696C5.47852 26.7565 4.51562 27 3.45312 27H3.28711C2.29102 26.6237 1.61589 26.0703 1.26172 25.3399C0.929688 24.5873 0.763672 23.7129 0.763672 22.7168V21.92ZM18.6602 18.4668H18.5605C18.5605 19.3744 18.5716 20.2709 18.5938 21.1563C18.638 22.0196 18.6602 22.916 18.6602 23.8457C18.6602 24.1114 18.6491 24.377 18.627 24.6426C18.627 24.8861 18.5938 25.1185 18.5273 25.3399C18.4609 25.5391 18.3392 25.7051 18.1621 25.8379C18.0072 25.9486 17.7637 26.0039 17.4316 26.0039C16.8118 26.0039 16.3802 25.683 16.1367 25.041C16.026 24.0007 15.9596 22.9825 15.9375 21.9864C15.9154 20.9681 15.849 19.9278 15.7383 18.8653C15.694 18.5554 15.5612 18.2565 15.3398 17.9688C15.1406 17.681 15.041 17.4043 15.041 17.1387C15.041 16.9395 15.1074 16.7735 15.2402 16.6407C15.3952 16.5078 15.4727 16.3197 15.4727 16.0762C15.4727 14.3496 15.4173 12.6452 15.3066 10.9629C15.2181 9.25849 15.1738 7.55407 15.1738 5.84964V5.28519C15.3288 5.06383 15.4837 4.93102 15.6387 4.88675C15.7936 4.84248 16.0039 4.82034 16.2695 4.82034C16.9115 4.82034 17.321 5.01956 17.498 5.418C17.6751 5.7943 17.7747 6.25915 17.7969 6.81253L18.0957 15.6446C18.1178 15.711 18.151 15.8216 18.1953 15.9766C18.2617 16.1094 18.3503 16.1758 18.4609 16.1758C18.6159 16.1758 18.9036 16.1426 19.3242 16.0762C19.7448 15.9877 20.1875 15.8991 20.6523 15.8106C21.1172 15.6999 21.5378 15.5892 21.9141 15.4785C22.2904 15.3457 22.5117 15.224 22.5781 15.1133C22.5781 14.9584 22.5781 14.6817 22.5781 14.2832C22.6003 13.8848 22.6113 13.6081 22.6113 13.4532C22.6113 12.5235 22.6003 11.6048 22.5781 10.6973C22.556 9.78974 22.5117 8.87112 22.4453 7.94144C22.4453 7.78649 22.4121 7.42125 22.3457 6.84573C22.2793 6.24808 22.2129 5.60615 22.1465 4.91995C22.0801 4.23375 22.0137 3.6029 21.9473 3.02737C21.903 2.42972 21.8809 2.05342 21.8809 1.89847C21.8587 1.87633 21.8477 1.80993 21.8477 1.69925C21.8477 1.56644 21.8477 1.4779 21.8477 1.43362C21.8477 1.14586 21.9473 0.935577 22.1465 0.802765C22.3678 0.669952 22.6003 0.603546 22.8438 0.603546C23.375 0.603546 23.7624 0.769562 24.0059 1.10159C24.2715 1.43362 24.4596 1.84313 24.5703 2.33011C24.5924 2.5736 24.6257 2.9831 24.6699 3.55862C24.7142 4.13415 24.7695 4.75394 24.8359 5.418C24.9023 6.08206 24.9577 6.71292 25.002 7.31058C25.0684 7.8861 25.1126 8.28454 25.1348 8.50589V9.03714C25.1348 9.14782 25.1458 9.36917 25.168 9.7012C25.2122 10.0111 25.2454 10.2214 25.2676 10.3321V23.9453C25.3783 24.3216 25.4447 24.6315 25.4668 24.875C25.5111 25.1185 25.5332 25.4063 25.5332 25.7383C25.5332 26.0039 25.4557 26.2917 25.3008 26.6016C25.168 26.8894 24.9245 27.0332 24.5703 27.0332C24.2604 27.0332 23.9727 26.9558 23.707 26.8008C23.4635 26.6459 23.2422 26.4466 23.043 26.2032C22.8659 25.9597 22.722 25.694 22.6113 25.4063C22.5007 25.0964 22.4453 24.7865 22.4453 24.4766V17.6367L18.6602 18.4668ZM29.0195 19.2969C28.8867 19.0091 28.776 18.7767 28.6875 18.5996C28.6211 18.4226 28.5879 18.2123 28.5879 17.9688C28.5879 17.7696 28.61 17.5925 28.6543 17.4375C28.7207 17.2604 28.7539 17.0723 28.7539 16.8731C28.7539 16.3861 28.7318 15.9323 28.6875 15.5117C28.6654 15.0912 28.6322 14.6263 28.5879 14.1172C28.5658 14.0508 28.4883 13.9955 28.3555 13.9512C28.2227 13.9069 28.0788 13.8516 27.9238 13.7852C27.7689 13.6966 27.625 13.5749 27.4922 13.42C27.3815 13.265 27.3262 13.0437 27.3262 12.7559C27.3262 12.4903 27.3815 12.2689 27.4922 12.0918C27.625 11.8926 27.7578 11.7155 27.8906 11.5606C28.0234 11.3835 28.1452 11.2064 28.2559 11.0293C28.3887 10.8301 28.4551 10.5977 28.4551 10.3321C28.4551 10.2214 28.444 10.0222 28.4219 9.73441C28.3997 9.42451 28.3776 9.10355 28.3555 8.77151C28.3555 8.43948 28.3444 8.12959 28.3223 7.84183C28.3223 7.53193 28.3223 7.32165 28.3223 7.21097V7.14456V7.07816C28.4108 6.87894 28.4772 6.71292 28.5215 6.58011C28.5879 6.4473 28.6543 6.34769 28.7207 6.28128C28.7871 6.21487 28.8757 6.1706 28.9863 6.14847C29.097 6.1042 29.2409 6.08206 29.418 6.08206C29.8828 6.08206 30.2259 6.1706 30.4473 6.34769C30.6686 6.52477 30.8236 6.73506 30.9121 6.97855C31.0007 7.1999 31.056 7.41019 31.0781 7.60941C31.1003 7.80862 31.1556 7.9193 31.2441 7.94144L33.6348 5.84964H33.7676C34.5423 5.34053 35.3613 4.95316 36.2246 4.68753C37.0879 4.39977 37.9954 4.25589 38.9473 4.25589C39.235 4.25589 39.5781 4.28909 39.9766 4.3555C40.3971 4.42191 40.7845 4.54365 41.1387 4.72073C41.515 4.87568 41.8249 5.08597 42.0684 5.35159C42.334 5.61722 42.4668 5.94925 42.4668 6.34769C42.4668 6.7904 42.4115 7.24417 42.3008 7.70901C42.1901 8.17386 42.0352 8.6387 41.8359 9.10355C41.6589 9.54625 41.4375 9.9779 41.1719 10.3985C40.9284 10.7969 40.6628 11.14 40.375 11.4278C40.2643 11.6713 39.556 12.291 38.25 13.2871C36.944 14.2832 34.9961 15.7663 32.4062 17.7364L48.3438 18.7325C48.5651 18.7546 48.8639 18.7767 49.2402 18.7989C49.6387 18.7989 50.015 18.8321 50.3691 18.8985C50.7454 18.9649 51.0664 19.0977 51.332 19.2969C51.5977 19.474 51.7305 19.7507 51.7305 20.127C51.7305 20.3262 51.6973 20.4922 51.6309 20.625C51.5866 20.7357 51.5202 20.8353 51.4316 20.9239C51.3652 20.9903 51.2767 21.0567 51.166 21.1231C51.0775 21.1895 50.9889 21.278 50.9004 21.3887H50.3359H49.7715C49.3288 21.3444 48.8639 21.2891 48.377 21.2227C47.9121 21.1563 47.3587 21.0788 46.7168 20.9903C46.097 20.9017 45.3665 20.8132 44.5254 20.7246C43.6842 20.6361 42.6771 20.5586 41.5039 20.4922C40.3307 20.4258 38.9583 20.3705 37.3867 20.3262C35.8372 20.2819 34.0332 20.2598 31.9746 20.2598C31.9525 20.2598 31.9193 20.293 31.875 20.3594C31.8529 20.4258 31.8418 20.4812 31.8418 20.5254C31.8418 21.3666 31.9082 22.1966 32.041 23.0157C32.196 23.8125 32.2734 24.6094 32.2734 25.4063C32.2734 25.5612 32.2513 25.7383 32.207 25.9375C32.1849 26.1146 32.1296 26.2917 32.041 26.4688C31.9525 26.6237 31.8418 26.7565 31.709 26.8672C31.5762 26.9779 31.4102 27.0332 31.2109 27.0332C31.0781 27.0332 30.9232 27.0111 30.7461 26.9668C30.569 26.9004 30.3919 26.8119 30.2148 26.7012C30.0599 26.5905 29.916 26.4688 29.7832 26.336C29.6504 26.2032 29.5729 26.0482 29.5508 25.8711L29.0195 19.2969ZM31.2441 11.959C31.2441 12.5124 31.2552 13.0326 31.2773 13.5196C31.2995 14.0065 31.3327 14.5378 31.377 15.1133H31.4766C31.4987 15.1133 31.554 15.0912 31.6426 15.0469C31.7311 15.0026 31.9525 14.8698 32.3066 14.6485C32.6608 14.405 33.2031 14.0397 33.9336 13.5528C34.6641 13.0437 35.6934 12.3353 37.0215 11.4278C37.2871 11.2728 37.5749 11.0072 37.8848 10.6309C38.1947 10.2546 38.4824 9.84508 38.748 9.40237C39.0137 8.95967 39.235 8.52803 39.4121 8.10745C39.5892 7.66474 39.6777 7.29951 39.6777 7.01175C39.6777 6.7904 39.5671 6.67972 39.3457 6.67972C39.1465 6.67972 38.9694 6.67972 38.8145 6.67972C38.4824 6.67972 38.1061 6.73506 37.6855 6.84573C37.265 6.95641 36.7559 7.17776 36.1582 7.5098C35.5827 7.84183 34.8854 8.31774 34.0664 8.93753C33.2695 9.55732 32.3288 10.3874 31.2441 11.4278V11.959ZM52.7598 8.20706C52.9368 7.96357 53.0918 7.80862 53.2246 7.74222C53.3796 7.65368 53.5898 7.60941 53.8555 7.60941C54.2096 7.60941 54.5417 7.70901 54.8516 7.90823C55.1836 8.10745 55.3717 8.39521 55.416 8.77151C55.5046 9.39131 55.5488 10.0222 55.5488 10.6641C55.571 11.2839 55.571 11.9147 55.5488 12.5567C55.5488 13.1765 55.5378 13.8073 55.5156 14.4492C55.5156 15.069 55.5378 15.6888 55.582 16.3086C55.6706 17.8138 55.8034 19.3744 55.9805 20.9903C56.1797 22.6062 56.2793 24.1667 56.2793 25.6719C56.2793 26.1146 56.1908 26.4466 56.0137 26.668C55.8366 26.8894 55.4935 27 54.9844 27C54.5638 27 54.2428 26.8562 54.0215 26.5684C53.8001 26.2806 53.6341 25.9375 53.5234 25.5391C53.4349 25.1407 53.3796 24.7422 53.3574 24.3438C53.3353 23.9232 53.3242 23.5912 53.3242 23.3477C53.3242 23.1706 53.3021 22.8054 53.2578 22.252C53.2357 21.6765 53.2025 21.0124 53.1582 20.2598C53.1361 19.4851 53.1029 18.6771 53.0586 17.836C53.0143 16.9727 52.9701 16.1647 52.9258 15.4121C52.8815 14.6374 52.8372 13.9733 52.793 13.42C52.7708 12.8444 52.7598 12.4681 52.7598 12.291V10.2325V8.20706ZM62.8535 25.8047C63.2077 25.3177 63.5951 24.9525 64.0156 24.709C64.4583 24.4655 64.901 24.2663 65.3438 24.1114C65.8086 23.9564 66.2624 23.8125 66.7051 23.6797C67.1699 23.5248 67.6237 23.2813 68.0664 22.9492C68.3099 22.8164 68.653 22.6172 69.0957 22.3516C69.5384 22.086 69.9701 21.7982 70.3906 21.4883C70.8333 21.1563 71.2096 20.8353 71.5195 20.5254C71.8516 20.2155 72.0176 19.9499 72.0176 19.7285C72.0176 19.7064 72.0065 19.6953 71.9844 19.6953C71.9401 19.6953 71.918 19.6843 71.918 19.6621L71.8516 19.5957C71.7409 19.5515 71.5638 19.4961 71.3203 19.4297C71.0768 19.3633 70.9329 19.319 70.8887 19.2969C68.0332 18.9649 65.7311 18.6771 63.9824 18.4336C62.2559 18.168 60.9167 17.8913 59.9648 17.6035C59.0352 17.3158 58.4154 16.9838 58.1055 16.6075C57.7956 16.2312 57.6406 15.7552 57.6406 15.1797C57.6406 14.9584 57.6849 14.7149 57.7734 14.4492C57.862 14.1836 57.9616 13.918 58.0723 13.6524C58.2051 13.3867 58.3379 13.1433 58.4707 12.9219C58.6035 12.7006 58.7253 12.5235 58.8359 12.3907C59.1901 11.9479 59.6549 11.5495 60.2305 11.1953C60.806 10.8412 61.4258 10.5313 62.0898 10.2657C62.7539 10 63.418 9.76761 64.082 9.56839C64.7682 9.36917 65.388 9.19209 65.9414 9.03714C66.5612 8.99287 67.181 8.84899 67.8008 8.6055C68.4427 8.33987 69.0736 8.16279 69.6934 8.07425C70.0033 8.07425 70.2578 8.19599 70.457 8.43948C70.6562 8.68297 70.7559 8.93753 70.7559 9.20316C70.7559 9.57946 70.6784 9.86722 70.5234 10.0664C70.3906 10.2435 70.2025 10.3874 69.959 10.4981C69.7376 10.5866 69.4831 10.6641 69.1953 10.7305C68.9076 10.7748 68.6198 10.8301 68.332 10.8965C68.1549 10.9408 67.9115 11.0072 67.6016 11.0957C67.2917 11.1621 66.9818 11.2396 66.6719 11.3282C66.362 11.4167 66.0853 11.4942 65.8418 11.5606C65.5983 11.627 65.4544 11.6713 65.4102 11.6934C64.724 11.9812 64.071 12.2578 63.4512 12.5235C62.8535 12.767 62.3223 13.0215 61.8574 13.2871C61.4147 13.5528 61.0605 13.8405 60.7949 14.1504C60.5514 14.4382 60.4408 14.7591 60.4629 15.1133V15.1465C60.6842 15.4564 61.1823 15.6888 61.957 15.8438C62.7318 15.9987 63.6393 16.1315 64.6797 16.2422C65.7422 16.3529 66.849 16.4636 68 16.5742C69.1732 16.6849 70.2467 16.8509 71.2207 17.0723C72.1947 17.2937 73.0026 17.5925 73.6445 17.9688C74.2865 18.3451 74.6185 18.8542 74.6406 19.4961C74.6406 19.7396 74.5853 20.0274 74.4746 20.3594C74.3861 20.6914 74.2533 20.946 74.0762 21.1231C73.5228 21.7429 72.8587 22.3848 72.084 23.0489C71.3314 23.7129 70.5124 24.3327 69.627 24.9082C68.7415 25.4616 67.8229 25.9375 66.8711 26.336C65.9414 26.7123 65.0228 26.9336 64.1152 27C63.8053 27 63.5176 26.8894 63.252 26.668C62.9863 26.4245 62.8535 26.1367 62.8535 25.8047ZM82.5762 12.4239C82.554 12.2468 82.5208 12.0254 82.4766 11.7598C82.4544 11.472 82.4212 11.2064 82.377 10.9629C82.3548 10.6973 82.3327 10.4759 82.3105 10.2989C82.2884 10.1218 82.2773 10.0332 82.2773 10.0332H82.0117L78.2266 11.1621C78.1159 11.3392 77.9277 11.4278 77.6621 11.4278C77.4186 11.4278 77.2305 11.4278 77.0977 11.4278C76.7878 11.4278 76.4668 11.295 76.1348 11.0293C75.8249 10.7416 75.6699 10.4317 75.6699 10.0996C75.6699 9.85615 75.7474 9.62373 75.9023 9.40237C76.0794 9.15888 76.2897 8.99287 76.5332 8.90433L81.8789 7.21097C81.9453 6.96748 82.0671 6.72399 82.2441 6.4805C82.4434 6.21487 82.6979 6.08206 83.0078 6.08206C83.3177 6.08206 83.5723 6.15954 83.7715 6.31448C83.9928 6.46943 84.2363 6.59118 84.502 6.67972C84.7012 6.65758 85.0332 6.59118 85.498 6.4805C85.9629 6.36982 86.4499 6.25915 86.959 6.14847C87.4902 6.01566 87.9883 5.89391 88.4531 5.78323C88.918 5.67256 89.2389 5.59508 89.416 5.55081C89.6816 5.50654 89.8809 5.4512 90.0137 5.3848C90.1465 5.31839 90.3568 5.28519 90.6445 5.28519C91.0208 5.28519 91.4082 5.39586 91.8066 5.61722C92.2051 5.83857 92.4043 6.1706 92.4043 6.61331C92.4043 6.90107 92.3047 7.15563 92.1055 7.37698C91.9062 7.5762 91.6628 7.70901 91.375 7.77542L85.0664 9.36917V9.668C85.0664 10.3542 85.1217 11.0293 85.2324 11.6934C85.3652 12.3575 85.4095 13.0215 85.3652 13.6856L86.4941 23.9453V24.6758C86.4941 24.9414 86.4831 25.2181 86.4609 25.5059C86.4609 25.7715 86.4167 26.015 86.3281 26.2364C86.2617 26.4577 86.14 26.6459 85.9629 26.8008C85.7858 26.9336 85.5202 27 85.166 27C84.9004 27 84.6126 26.8894 84.3027 26.668C84.015 26.4466 83.86 26.181 83.8379 25.8711L82.5762 12.6895V12.4239ZM91.0098 8.20706C91.1868 7.96357 91.3418 7.80862 91.4746 7.74222C91.6296 7.65368 91.8398 7.60941 92.1055 7.60941C92.4596 7.60941 92.7917 7.70901 93.1016 7.90823C93.4336 8.10745 93.6217 8.39521 93.666 8.77151C93.7546 9.39131 93.7988 10.0222 93.7988 10.6641C93.821 11.2839 93.821 11.9147 93.7988 12.5567C93.7988 13.1765 93.7878 13.8073 93.7656 14.4492C93.7656 15.069 93.7878 15.6888 93.832 16.3086C93.9206 17.8138 94.0534 19.3744 94.2305 20.9903C94.4297 22.6062 94.5293 24.1667 94.5293 25.6719C94.5293 26.1146 94.4408 26.4466 94.2637 26.668C94.0866 26.8894 93.7435 27 93.2344 27C92.8138 27 92.4928 26.8562 92.2715 26.5684C92.0501 26.2806 91.8841 25.9375 91.7734 25.5391C91.6849 25.1407 91.6296 24.7422 91.6074 24.3438C91.5853 23.9232 91.5742 23.5912 91.5742 23.3477C91.5742 23.1706 91.5521 22.8054 91.5078 22.252C91.4857 21.6765 91.4525 21.0124 91.4082 20.2598C91.3861 19.4851 91.3529 18.6771 91.3086 17.836C91.2643 16.9727 91.2201 16.1647 91.1758 15.4121C91.1315 14.6374 91.0872 13.9733 91.043 13.42C91.0208 12.8444 91.0098 12.4681 91.0098 12.291V10.2325V8.20706ZM96.123 22.8496C96.123 21.4994 96.1452 20.1491 96.1895 18.7989C96.2559 17.4265 96.3223 16.0651 96.3887 14.7149C96.4551 13.3425 96.4993 11.9812 96.5215 10.6309C96.5658 9.25849 96.5658 7.89717 96.5215 6.54691C96.5879 6.30342 96.7096 6.12633 96.8867 6.01566C97.0638 5.88284 97.2741 5.81644 97.5176 5.81644C97.9824 5.81644 98.3366 5.90498 98.5801 6.08206C98.8236 6.23701 99.0007 6.45836 99.1113 6.74612C99.222 7.03388 99.2884 7.35485 99.3105 7.70901C99.3327 8.06318 99.3548 8.41735 99.377 8.77151C99.6426 9.25849 99.9525 9.73441 100.307 10.1992C100.683 10.642 101.015 11.0957 101.303 11.5606C101.303 11.5827 101.314 11.6381 101.336 11.7266C101.38 11.793 101.413 11.8262 101.436 11.8262C101.568 12.0254 101.734 12.291 101.934 12.6231C102.155 12.933 102.365 13.2429 102.564 13.5528C102.764 13.8405 102.93 14.0951 103.062 14.3164C103.217 14.5378 103.295 14.6485 103.295 14.6485L103.428 14.8145L105.354 17.6035C105.442 17.6921 105.52 17.7364 105.586 17.7364H105.652C105.365 15.39 105.132 12.9994 104.955 10.5645C104.778 8.10745 104.689 5.68362 104.689 3.293V1.63284C104.867 1.34508 105.165 1.2012 105.586 1.2012C106.007 1.2012 106.316 1.30081 106.516 1.50003C106.715 1.69925 106.848 1.95381 106.914 2.2637C106.98 2.55146 107.014 2.87243 107.014 3.22659C107.014 3.55862 107.025 3.86852 107.047 4.15628C107.047 4.17842 107.058 4.22269 107.08 4.28909C107.102 4.33336 107.124 4.45511 107.146 4.65433C107.191 4.83141 107.224 5.11917 107.246 5.51761C107.29 5.89391 107.335 6.42516 107.379 7.11136C107.445 7.79756 107.501 8.66084 107.545 9.7012C107.611 10.7416 107.689 12.0144 107.777 13.5196V14.1172L108.906 21.5215C108.928 21.6986 109.017 21.9753 109.172 22.3516C109.349 22.7058 109.438 22.9825 109.438 23.1817C109.438 23.6465 109.305 24.0228 109.039 24.3106C108.773 24.5983 108.397 24.7422 107.91 24.7422C107.844 24.7422 107.755 24.7201 107.645 24.6758C107.534 24.6094 107.423 24.543 107.312 24.4766C107.202 24.4102 107.091 24.3438 106.98 24.2774C106.892 24.1888 106.826 24.1224 106.781 24.0782L101.436 16.4746C101.413 16.4746 101.391 16.4414 101.369 16.375C101.347 16.2865 101.325 16.2201 101.303 16.1758C101.17 15.9766 100.993 15.7331 100.771 15.4453C100.55 15.1354 100.34 14.8366 100.141 14.5489C99.9414 14.239 99.7643 13.9733 99.6094 13.752C99.4544 13.5306 99.377 13.4089 99.377 13.3867L99.2109 13.2539C99.1003 15.3568 99.0117 17.4818 98.9453 19.6289C98.8789 21.7539 98.8789 23.8789 98.9453 26.0039C98.901 26.2696 98.7572 26.502 98.5137 26.7012C98.2923 26.9004 98.0599 27 97.8164 27C97.3737 27 97.0195 26.8894 96.7539 26.668C96.5104 26.4245 96.3001 26.1146 96.123 25.7383V22.8496ZM112.725 26.2696C112.503 25.3841 112.337 24.5541 112.227 23.7793C112.116 22.9825 112.038 22.1413 111.994 21.2559C111.972 20.7468 111.972 20.3151 111.994 19.961C112.016 19.5847 111.972 19.1752 111.861 18.7325C111.839 18.6439 111.784 18.5775 111.695 18.5332C111.629 18.489 111.551 18.4336 111.463 18.3672C111.396 18.3008 111.33 18.2233 111.264 18.1348C111.197 18.0241 111.164 17.8581 111.164 17.6367C111.164 17.4597 111.197 17.3047 111.264 17.1719C111.352 17.0391 111.43 16.9173 111.496 16.8067C111.585 16.6739 111.662 16.541 111.729 16.4082C111.817 16.2533 111.861 16.0762 111.861 15.877V15.3789C111.861 15.1576 111.839 14.7813 111.795 14.25C111.751 13.7188 111.706 13.1543 111.662 12.5567C111.618 11.959 111.574 11.3946 111.529 10.8633C111.507 10.3321 111.485 9.96683 111.463 9.76761C111.441 9.39131 111.341 9.05928 111.164 8.77151C110.987 8.48375 110.898 8.15172 110.898 7.77542C110.898 7.06709 111.042 6.56904 111.33 6.28128C111.618 5.99352 112.127 5.84964 112.857 5.84964C113.012 5.84964 113.134 5.91605 113.223 6.04886C113.333 6.18167 113.455 6.24808 113.588 6.24808H113.721C113.787 6.22594 113.887 6.20381 114.02 6.18167C114.152 6.1374 114.241 6.11526 114.285 6.11526C116.145 5.31839 117.594 4.6986 118.635 4.25589C119.675 3.81318 120.461 3.49222 120.992 3.293C121.523 3.09378 121.878 2.9831 122.055 2.96097C122.254 2.93883 122.42 2.96097 122.553 3.02737C122.818 3.07165 122.995 3.16019 123.084 3.293C123.195 3.40368 123.25 3.58076 123.25 3.82425C123.25 4.0456 123.217 4.26696 123.15 4.48831C123.084 4.70967 122.929 4.87568 122.686 4.98636L118.336 7.07816L118.203 7.21097L114.551 8.77151C114.418 8.81579 114.34 8.92646 114.318 9.10355C114.296 9.28063 114.285 9.42451 114.285 9.53519C114.285 9.71227 114.307 10.0332 114.352 10.4981C114.396 10.9629 114.44 11.4499 114.484 11.959C114.529 12.446 114.573 12.8887 114.617 13.2871C114.684 13.6634 114.728 13.8516 114.75 13.8516H114.783C114.783 13.8516 114.794 13.8405 114.816 13.8184C115.06 13.6413 115.447 13.3425 115.979 12.9219C116.51 12.4792 117.052 12.0365 117.605 11.5938C118.159 11.1511 118.646 10.7637 119.066 10.4317C119.487 10.0775 119.708 9.90042 119.73 9.90042C119.974 9.90042 120.195 10.0222 120.395 10.2657C120.594 10.5091 120.693 10.7637 120.693 11.0293C120.693 11.295 120.638 11.5938 120.527 11.9258C120.417 12.2578 120.24 12.5124 119.996 12.6895L114.816 17.3047C114.816 17.3047 114.816 17.3601 114.816 17.4707C114.816 17.5814 114.805 17.7032 114.783 17.836C114.783 17.9688 114.783 18.1127 114.783 18.2676C114.783 18.4004 114.783 18.5111 114.783 18.5996C114.783 19.3965 114.839 20.1934 114.949 20.9903C115.06 21.765 115.115 22.5508 115.115 23.3477H115.248C115.27 23.3477 115.37 23.2591 115.547 23.0821C115.724 22.905 115.857 22.7611 115.945 22.6504C115.99 22.584 116.089 22.4401 116.244 22.2188C116.421 21.9974 116.709 21.6322 117.107 21.1231C117.506 20.614 118.037 19.9388 118.701 19.0977C119.365 18.2565 120.217 17.194 121.258 15.9102C121.346 15.8216 121.468 15.6888 121.623 15.5117C121.8 15.3347 121.911 15.2461 121.955 15.2461C122.021 15.1797 122.154 15.1576 122.354 15.1797C122.575 15.1797 122.73 15.2019 122.818 15.2461C122.929 15.2904 123.073 15.4121 123.25 15.6114C123.427 15.8106 123.516 15.9987 123.516 16.1758C123.516 16.4414 123.372 16.7956 123.084 17.2383C122.818 17.6589 122.497 18.1016 122.121 18.5664C121.745 19.0313 121.368 19.4851 120.992 19.9278C120.616 20.3483 120.328 20.6914 120.129 20.9571C119.819 21.444 119.443 22.0417 119 22.75C118.579 23.4362 118.115 24.1003 117.605 24.7422C117.096 25.362 116.532 25.9043 115.912 26.3692C115.314 26.8119 114.673 27.0332 113.986 27.0332C113.654 27.0332 113.411 26.9779 113.256 26.8672C113.123 26.7565 112.946 26.5573 112.725 26.2696ZM142.109 18.4668H142.01C142.01 19.3744 142.021 20.2709 142.043 21.1563C142.087 22.0196 142.109 22.916 142.109 23.8457C142.109 24.1114 142.098 24.377 142.076 24.6426C142.076 24.8861 142.043 25.1185 141.977 25.3399C141.91 25.5391 141.788 25.7051 141.611 25.8379C141.456 25.9486 141.213 26.0039 140.881 26.0039C140.261 26.0039 139.829 25.683 139.586 25.041C139.475 24.0007 139.409 22.9825 139.387 21.9864C139.365 20.9681 139.298 19.9278 139.188 18.8653C139.143 18.5554 139.01 18.2565 138.789 17.9688C138.59 17.681 138.49 17.4043 138.49 17.1387C138.49 16.9395 138.557 16.7735 138.689 16.6407C138.844 16.5078 138.922 16.3197 138.922 16.0762C138.922 14.3496 138.867 12.6452 138.756 10.9629C138.667 9.25849 138.623 7.55407 138.623 5.84964V5.28519C138.778 5.06383 138.933 4.93102 139.088 4.88675C139.243 4.84248 139.453 4.82034 139.719 4.82034C140.361 4.82034 140.77 5.01956 140.947 5.418C141.124 5.7943 141.224 6.25915 141.246 6.81253L141.545 15.6446C141.567 15.711 141.6 15.8216 141.645 15.9766C141.711 16.1094 141.799 16.1758 141.91 16.1758C142.065 16.1758 142.353 16.1426 142.773 16.0762C143.194 15.9877 143.637 15.8991 144.102 15.8106C144.566 15.6999 144.987 15.5892 145.363 15.4785C145.74 15.3457 145.961 15.224 146.027 15.1133C146.027 14.9584 146.027 14.6817 146.027 14.2832C146.049 13.8848 146.061 13.6081 146.061 13.4532C146.061 12.5235 146.049 11.6048 146.027 10.6973C146.005 9.78974 145.961 8.87112 145.895 7.94144C145.895 7.78649 145.861 7.42125 145.795 6.84573C145.729 6.24808 145.662 5.60615 145.596 4.91995C145.529 4.23375 145.463 3.6029 145.396 3.02737C145.352 2.42972 145.33 2.05342 145.33 1.89847C145.308 1.87633 145.297 1.80993 145.297 1.69925C145.297 1.56644 145.297 1.4779 145.297 1.43362C145.297 1.14586 145.396 0.935577 145.596 0.802765C145.817 0.669952 146.049 0.603546 146.293 0.603546C146.824 0.603546 147.212 0.769562 147.455 1.10159C147.721 1.43362 147.909 1.84313 148.02 2.33011C148.042 2.5736 148.075 2.9831 148.119 3.55862C148.163 4.13415 148.219 4.75394 148.285 5.418C148.352 6.08206 148.407 6.71292 148.451 7.31058C148.518 7.8861 148.562 8.28454 148.584 8.50589V9.03714C148.584 9.14782 148.595 9.36917 148.617 9.7012C148.661 10.0111 148.695 10.2214 148.717 10.3321V23.9453C148.827 24.3216 148.894 24.6315 148.916 24.875C148.96 25.1185 148.982 25.4063 148.982 25.7383C148.982 26.0039 148.905 26.2917 148.75 26.6016C148.617 26.8894 148.374 27.0332 148.02 27.0332C147.71 27.0332 147.422 26.9558 147.156 26.8008C146.913 26.6459 146.691 26.4466 146.492 26.2032C146.315 25.9597 146.171 25.694 146.061 25.4063C145.95 25.0964 145.895 24.7865 145.895 24.4766V17.6367L142.109 18.4668ZM150.775 24.9082C150.775 23.5801 150.864 22.2631 151.041 20.9571C151.218 19.6511 151.373 18.3451 151.506 17.0391C151.506 16.9727 151.517 16.8288 151.539 16.6075C151.561 16.364 151.583 16.1094 151.605 15.8438C151.65 15.5782 151.683 15.3347 151.705 15.1133C151.749 14.8698 151.771 14.7149 151.771 14.6485V14.5157L153.166 4.15628C153.122 3.71357 153.188 3.3262 153.365 2.99417C153.564 2.64 153.919 2.46292 154.428 2.46292C154.981 2.39651 155.435 2.47399 155.789 2.69534C156.165 2.89456 156.475 3.16019 156.719 3.49222C156.962 3.82425 157.161 4.18948 157.316 4.58792C157.471 4.98636 157.637 5.35159 157.814 5.68362C157.925 5.99352 158.058 6.35875 158.213 6.77933C158.39 7.1999 158.589 7.73115 158.811 8.37308C159.054 9.015 159.331 9.80081 159.641 10.7305C159.973 11.6602 160.349 12.7891 160.77 14.1172L160.902 14.25C161.057 14.1615 161.345 14.0176 161.766 13.8184C162.208 13.6192 162.662 13.4089 163.127 13.1875C163.614 12.9662 164.068 12.7559 164.488 12.5567C164.909 12.3575 165.208 12.2246 165.385 12.1582C165.407 12.114 165.462 12.0808 165.551 12.0586C165.661 12.0144 165.739 11.9812 165.783 11.959H165.85C166.071 11.959 166.237 12.0476 166.348 12.2246C166.458 12.3796 166.514 12.5345 166.514 12.6895C166.514 12.933 166.458 13.1433 166.348 13.3203C166.237 13.4974 166.104 13.6634 165.949 13.8184C165.816 13.9512 165.661 14.084 165.484 14.2168C165.329 14.3496 165.208 14.4935 165.119 14.6485L161.832 16.3086C161.743 16.4193 161.699 16.5078 161.699 16.5742C161.699 16.7513 161.788 17.028 161.965 17.4043C162.164 17.7806 162.319 18.0795 162.43 18.3008C162.496 18.4336 162.607 18.6771 162.762 19.0313C162.917 19.3854 163.083 19.7507 163.26 20.127C163.437 20.5033 163.603 20.8685 163.758 21.2227C163.935 21.5547 164.057 21.7871 164.123 21.92V22.0196C164.123 22.8164 163.725 23.2149 162.928 23.2149C162.684 23.2149 162.43 23.1927 162.164 23.1485C161.898 23.0821 161.699 22.916 161.566 22.6504L159.342 17.9024H159.043C158.202 18.5443 157.305 19.1752 156.354 19.795C155.402 20.4147 154.428 20.946 153.432 21.3887C153.277 22.1856 153.177 22.9935 153.133 23.8125C153.111 24.6315 153.122 25.4506 153.166 26.2696C152.989 26.5131 152.812 26.7012 152.635 26.834C152.458 26.9447 152.214 27 151.904 27C151.594 27 151.362 26.9336 151.207 26.8008C151.052 26.6459 150.941 26.4688 150.875 26.2696C150.809 26.0482 150.775 25.8158 150.775 25.5723C150.775 25.3288 150.775 25.1075 150.775 24.9082ZM153.73 18.4668C154.395 18.2012 155.036 17.847 155.656 17.4043C156.298 16.9616 156.907 16.5521 157.482 16.1758C157.549 16.1315 157.626 16.0873 157.715 16.043C157.826 15.9987 157.925 15.9434 158.014 15.877C158.102 15.8106 158.213 15.7331 158.346 15.6446V15.3789L155.291 6.67972L155.158 6.54691C155.092 6.67972 155.003 7.05602 154.893 7.67581C154.804 8.2956 154.693 9.10355 154.561 10.0996C154.45 11.0736 154.317 12.2025 154.162 13.4864C154.029 14.7702 153.885 16.1426 153.73 17.6035V18.4668Z" fill="white"/>
</svg>
