<svg width="155" height="26" viewBox="0 0 155 26" fill="none" xmlns="http://www.w3.org/2000/svg">
<g clip-path="url(#clip0_459_2313)">
<path d="M11.8965 24.7434C11.7558 24.7434 11.6423 24.6299 11.6423 24.4892V15.1621C11.6423 13.1505 10.5859 12.5039 8.91499 12.5039C7.78951 12.5039 6.94047 12.9629 6.3259 13.501C5.95814 13.8243 5.74588 14.2908 5.74588 14.7795V24.4867C5.74588 24.6274 5.63235 24.741 5.49166 24.741H0.747872C0.607187 24.741 0.493652 24.6274 0.493652 24.4867V1.40705C0.493652 1.26637 0.607187 1.15283 0.747872 1.15283H5.48919C5.62988 1.15283 5.74341 1.26637 5.74341 1.40705V9.65068C5.74341 9.87282 6.00997 9.99129 6.1704 9.83826C7.24405 8.82385 9.02852 7.86621 11.4374 7.86621C15.189 7.86621 16.8921 9.97895 16.8921 13.0148V24.4892C16.8921 24.6299 16.7785 24.7434 16.6378 24.7434H11.8965Z" fill="#7E3DD4"/>
<path d="M18.7925 16.4924C18.7925 11.8547 22.1344 7.86621 27.7248 7.86621C33.3152 7.86621 36.7261 11.8547 36.7261 16.4924C36.7261 21.1301 33.3843 25.1532 27.7248 25.1532C22.0653 25.1532 18.7925 21.1301 18.7925 16.4924ZM31.3406 16.4924C31.3406 14.3106 30.0448 12.5039 27.7273 12.5039C25.4097 12.5039 24.1805 14.3106 24.1805 16.4924C24.1805 18.6743 25.4763 20.5155 27.7273 20.5155C29.9782 20.5155 31.3406 18.7088 31.3406 16.4924Z" fill="#7E3DD4"/>
<path d="M59.6429 24.7435C59.5022 24.7435 59.3887 24.6299 59.3887 24.4892V14.7203C59.3887 13.4591 58.7741 12.5039 57.2068 12.5039C56.1727 12.5039 55.3508 12.9852 54.7806 13.5084C54.4326 13.8293 54.2401 14.281 54.2401 14.7524V24.4892C54.2401 24.6299 54.1266 24.7435 53.9859 24.7435H49.2446C49.1039 24.7435 48.9904 24.6299 48.9904 24.4892V14.7203C48.9904 13.4591 48.4103 12.5039 46.8431 12.5039C45.8015 12.5039 44.9944 12.9901 44.4218 13.5183C44.0738 13.8392 43.8763 14.2908 43.8763 14.7647V24.4868C43.8763 24.6275 43.7628 24.741 43.6221 24.741H38.8808C38.7401 24.741 38.6266 24.6275 38.6266 24.4868V8.53017C38.6266 8.38949 38.7401 8.27595 38.8808 8.27595H43.6221C43.7628 8.27595 43.8763 8.38949 43.8763 8.53017V9.6285C43.8763 9.85063 44.1429 9.9691 44.3033 9.81361C45.256 8.91273 47.1047 7.86377 49.2964 7.86377C51.6831 7.86377 53.2849 8.8535 53.9662 10.7959C54.9213 9.36441 57.0686 7.86377 59.6602 7.86377C62.6935 7.86377 64.6039 9.43105 64.6039 12.8075V24.4868C64.6039 24.6275 64.4904 24.741 64.3497 24.741H59.6429V24.7435Z" fill="#7E3DD4"/>
<path d="M66.492 16.4924C66.492 11.719 70.0709 7.86621 75.2194 7.86621C80.094 7.86621 83.6408 11.445 83.6408 17.0379V17.9758C83.6408 18.1165 83.5272 18.23 83.3865 18.23H72.2601C72.0824 18.23 71.959 18.4077 72.0207 18.5731C72.5094 19.8812 73.8397 20.9227 76.0388 20.9227C77.1199 20.9227 78.8501 20.4785 79.8546 19.701C79.9706 19.6122 80.1384 19.6418 80.2199 19.7627L82.2216 22.7813C82.2932 22.8899 82.2709 23.0355 82.1697 23.1194C80.5186 24.4843 77.8924 25.1507 75.4588 25.1507C70.3794 25.1507 66.492 21.8434 66.492 16.4899V16.4924ZM75.2194 12.0942C73.1388 12.0942 72.2181 13.2246 71.9146 14.3303C71.8701 14.4932 71.9935 14.6512 72.1614 14.6512H78.3268C78.4897 14.6512 78.6131 14.5006 78.5761 14.3426C78.3318 13.2591 77.4284 12.0942 75.2194 12.0942Z" fill="#7E3DD4"/>
<path d="M85.5264 24.4892V1.40705C85.5264 1.26637 85.64 1.15283 85.7806 1.15283H90.522C90.6627 1.15283 90.7762 1.26637 90.7762 1.40705V9.54208C90.7762 9.77162 91.0551 9.88269 91.2131 9.71979C92.457 8.43635 94.0391 7.86621 95.6508 7.86621C99.7751 7.86621 102.912 11.1044 102.912 16.4924C102.912 21.8804 99.706 25.1531 95.6508 25.1531C94.0021 25.1531 92.4891 24.5509 91.2106 23.2971C91.0477 23.1391 90.7762 23.2502 90.7762 23.4773V24.4892C90.7762 24.6299 90.6627 24.7434 90.522 24.7434H85.7806C85.64 24.7434 85.5264 24.6299 85.5264 24.4892ZM93.9132 20.5155C95.9939 20.5155 97.5611 18.9803 97.5611 16.4924C97.5611 14.0045 95.9939 12.5039 93.9132 12.5039C93.1012 12.5039 92.1658 12.8223 91.4648 13.3332C91.0304 13.6491 90.7762 14.16 90.7762 14.6981V18.346C90.7762 18.889 91.0329 19.4073 91.4771 19.7207C92.1781 20.2168 93.1061 20.513 93.9132 20.513V20.5155Z" fill="#7E3DD4"/>
<path d="M114.638 24.4892V23.1071C113.616 24.3337 111.637 25.1532 109.524 25.1532C107.002 25.1532 103.865 23.4131 103.865 19.7331C103.865 15.7446 107.002 14.4142 109.524 14.4142C111.43 14.4142 113.152 14.9597 114.216 15.9149C114.379 16.0605 114.638 15.942 114.638 15.7223V14.7203C114.638 13.2887 113.412 12.299 111.296 12.299C109.756 12.299 108.214 12.8741 106.93 13.8811C106.807 13.9798 106.624 13.9403 106.55 13.7997L104.85 10.6059C104.793 10.4997 104.818 10.3664 104.911 10.2899C107.007 8.57951 109.759 7.86621 112.22 7.86621C116.173 7.86621 119.891 9.33229 119.891 14.4463V24.4892C119.891 24.6299 119.777 24.7434 119.636 24.7434H114.895C114.754 24.7434 114.641 24.6299 114.641 24.4892H114.638ZM114.638 19.7899C114.638 19.1555 114.278 18.5755 113.705 18.304C113.133 18.0325 112.402 17.8918 111.706 17.8918C110.341 17.8918 109.08 18.5064 109.08 19.8022C109.08 21.098 110.341 21.7125 111.706 21.7125C112.434 21.7125 113.189 21.5521 113.784 21.2362C114.315 20.9548 114.638 20.3921 114.638 19.7923V19.7899Z" fill="#7E3DD4"/>
<path d="M121.448 22.4135L123.373 19.1062C123.45 18.9729 123.627 18.9383 123.748 19.0321C125.049 20.0614 127.487 21.061 129.321 21.061C130.889 21.061 131.538 20.6167 131.538 19.9009C131.538 17.8548 121.956 19.97 121.956 13.2863C121.956 10.3887 124.479 7.86621 129.013 7.86621C131.713 7.86621 133.969 8.69304 135.716 9.91725C135.822 9.99129 135.852 10.132 135.793 10.2455L134.043 13.4813C133.966 13.6219 133.779 13.659 133.655 13.5553C132.621 12.689 130.879 11.9584 129.047 11.9584C127.821 11.9584 127.001 12.4348 127.001 13.0839C127.001 14.8906 136.548 13.0148 136.548 19.7676C136.548 22.9047 133.786 25.1556 129.082 25.1556C126.207 25.1556 123.267 24.2276 121.507 22.7418C121.411 22.6603 121.386 22.5246 121.45 22.416L121.448 22.4135Z" fill="#7E3DD4"/>
<path d="M137.328 16.4924C137.328 11.719 140.907 7.86621 146.055 7.86621C150.93 7.86621 154.477 11.445 154.477 17.0379V17.9758C154.477 18.1165 154.363 18.23 154.223 18.23H143.096C142.918 18.23 142.795 18.4077 142.857 18.5731C143.345 19.8812 144.676 20.9227 146.875 20.9227C147.956 20.9227 149.686 20.4785 150.691 19.701C150.807 19.6122 150.974 19.6418 151.056 19.7627L153.058 22.7813C153.129 22.8899 153.107 23.0355 153.006 23.1194C151.355 24.4843 148.728 25.1507 146.295 25.1507C141.215 25.1507 137.328 21.8434 137.328 16.4899V16.4924ZM146.055 12.0942C143.975 12.0942 143.054 13.2246 142.751 14.3303C142.706 14.4932 142.83 14.6512 142.997 14.6512H149.163C149.326 14.6512 149.449 14.5006 149.412 14.3426C149.168 13.2591 148.264 12.0942 146.055 12.0942Z" fill="#7E3DD4"/>
</g>
<defs>
<clipPath id="clip0_459_2313">
<rect width="155" height="25.1752" fill="white" transform="translate(0 0.412598)"/>
</clipPath>
</defs>
</svg>
